<?xml version="1.0" encoding="UTF-8" standalone="no"?>
<!DOCTYPE svg PUBLIC "-//W3C//DTD SVG 1.1//EN" "http://www.w3.org/Graphics/SVG/1.1/DTD/svg11.dtd">
<svg width="100%" height="100%" viewBox="0 0 500 391" version="1.1" xmlns="http://www.w3.org/2000/svg" xmlns:xlink="http://www.w3.org/1999/xlink" xml:space="preserve" xmlns:serif="http://www.serif.com/" style="fill-rule:evenodd;clip-rule:evenodd;stroke-linejoin:round;stroke-miterlimit:2;">
    <g id="Слой_2">
        <g id="Слой_1-2">
            <path d="M349.27,322.2L252.85,266.68C251.746,266.049 251.062,264.87 251.062,263.598C251.062,262.269 251.808,261.047 252.99,260.44L265.12,254.18C266.196,253.631 267.48,253.661 268.53,254.26L368.19,311.65C369.294,312.284 369.977,313.464 369.977,314.737C369.977,316.067 369.232,317.29 368.05,317.9L359.25,322.43C356.105,324.058 352.337,323.971 349.27,322.2Z" style="fill:rgb(239,239,245);fill-rule:nonzero;"/>
            <path d="M355.18,311.75L273,264.31C266,260.31 260.39,249.51 260.39,240.23L260.39,11C260.39,1.72 266.04,-2.55 273,1.47L355.18,49C362.18,53 367.79,63.8 367.79,73.08L367.79,302.28C367.79,311.51 362.14,315.77 355.18,311.75Z" style="fill:rgb(177,180,196);fill-rule:nonzero;"/>
            <path d="M356.59,315.88L363.1,312.59L356.86,301.89L356.59,315.88Z" style="fill:rgb(177,180,196);fill-rule:nonzero;"/>
            <path d="M259.14,3.8L265.13,0.66L263.92,9.49L259.14,3.8Z" style="fill:rgb(177,180,196);fill-rule:nonzero;"/>
            <path d="M350,314.37L267.83,266.93C260.83,262.93 255.23,252.13 255.23,242.85L255.23,13.66C255.23,4.38 260.87,0.11 267.83,4.13L350,51.57C357,55.57 362.6,66.37 362.6,75.65L362.6,304.85C362.55,314.13 356.91,318.39 350,314.37Z" style="fill:rgb(97,110,132);fill-rule:nonzero;"/>
            <path d="M361.67,76.24L361.67,305.42C361.67,314.71 356.03,318.97 349.07,314.96L316.85,296.35L306.85,290.57L266.9,267.52C259.9,263.52 254.3,252.72 254.3,243.43L254.3,14.25C254.3,5 259.94,0.7 266.9,4.71L349.07,52.15C356,56.17 361.67,67 361.67,76.24Z" style="fill:rgb(32,35,45);fill-rule:nonzero;"/>
            <path d="M355.75,73.91L355.75,297.13C355.75,302.75 351.8,305.04 346.93,302.22L321.24,287.39L319,286.08L318.24,285.64L312.69,282.43L296.62,273.17L289.95,269.32L287.27,267.77L269,257.26C264.13,254.45 260.19,247.6 260.19,241.98L260.19,18.76C260.19,13.13 264.13,10.85 269,13.66L301.08,32.19L301.08,32.28C301.36,37.116 303.934,41.538 308,44.17C311.8,46.34 314.88,44.58 314.88,40.17L314.88,40.07L346.96,58.6C351.8,61.44 355.75,68.28 355.75,73.91Z" style="fill:white;fill-rule:nonzero;"/>
            <g transform="matrix(0.87,-0.5,0.5,0.87,21.93,159.18)">
                <ellipse cx="307.99" cy="38.67" rx="2.13" ry="3.68" style="fill:rgb(43,48,63);"/>
            </g>
            <path d="M308,39.93C307.344,39.502 306.934,38.782 306.9,38C306.9,37.3 307.39,37 307.99,37.37C308.635,37.789 309.041,38.492 309.08,39.26C309.08,40 308.59,40.28 308,39.93Z" style="fill-opacity:0.1;fill-rule:nonzero;"/>
            <path d="M365,106.39C364.33,106.78 363.78,106.39 363.78,105.47L363.78,95.7C363.799,94.778 364.251,93.918 365,93.38C365.67,93 366.21,93.38 366.21,94.3L366.21,104.07C366.198,104.991 365.749,105.853 365,106.39Z" style="fill:rgb(117,123,137);fill-rule:nonzero;"/>
            <path d="M365,122.4C364.33,122.79 363.78,122.4 363.78,121.49L363.78,111.71C363.799,110.788 364.251,109.928 365,109.39C365.67,109.01 366.21,109.39 366.21,110.31L366.21,120.08C366.2,121.001 365.75,121.864 365,122.4Z" style="fill:rgb(117,123,137);fill-rule:nonzero;"/>
            <path d="M172.46,258.94L86.51,308.89L0,258.94L85.95,208.99L172.46,258.94Z" style="fill:rgb(239,239,245);fill-rule:nonzero;"/>
            <path d="M179.09,247.26L179.07,255.85L93.12,305.8L93.14,297.2L179.09,247.26Z" style="fill:rgb(211,211,221);fill-rule:nonzero;"/>
            <path d="M93.14,297.2L93.12,305.8L6.61,255.85L6.63,247.26L93.14,297.2Z" style="fill:rgb(224,222,233);fill-rule:nonzero;"/>
            <path d="M179.09,247.26L93.14,297.2L6.63,247.26L92.58,197.31L179.09,247.26Z" style="fill:rgb(234,234,244);fill-rule:nonzero;"/>
            <path d="M165.69,117L165.32,245.93L92.98,287.97L93.35,159.04L165.69,117Z" style="fill:rgb(211,211,221);fill-rule:nonzero;"/>
            <path d="M93.35,159.04L92.98,287.97L20.17,245.93L20.53,117L93.35,159.04Z" style="fill:rgb(224,222,233);fill-rule:nonzero;"/>
            <path d="M165.69,117L93.35,159.04L20.53,117L92.87,74.96L165.69,117Z" style="fill:rgb(234,234,244);fill-rule:nonzero;"/>
            <path d="M39.3,173.37L39.26,186.74L27.64,180.03L27.67,166.66L39.3,173.37Z" style="fill:rgb(42,49,63);fill-rule:nonzero;"/>
            <path d="M39.35,154.78L39.32,168.14L27.69,161.43L27.73,148.07L39.35,154.78Z" style="fill:rgb(42,49,63);fill-rule:nonzero;"/>
            <path d="M39.41,136.18L39.37,149.55L27.74,142.84L27.78,129.47L39.41,136.18Z" style="fill:rgb(42,49,63);fill-rule:nonzero;"/>
            <path d="M86.28,219.13L86.25,232.5L44.53,208.41L44.56,195.04L86.28,219.13Z" style="fill:rgb(42,49,63);fill-rule:nonzero;"/>
            <path d="M86.34,200.53L86.3,213.9L44.58,189.81L44.62,176.44L86.34,200.53Z" style="fill:rgb(42,49,63);fill-rule:nonzero;"/>
            <path d="M86.39,181.94L86.35,195.3L44.63,171.21L44.67,157.85L86.39,181.94Z" style="fill:rgb(42,49,63);fill-rule:nonzero;"/>
            <path d="M86.44,163.34L86.4,176.71L44.69,152.62L44.72,139.25L86.44,163.34Z" style="fill:rgb(42,49,63);fill-rule:nonzero;"/>
            <path d="M39.2,210.56L39.16,223.93L27.53,217.22L27.57,203.85L39.2,210.56Z" style="fill:rgb(42,49,63);fill-rule:nonzero;"/>
            <path d="M39.25,191.97L39.21,205.34L27.58,198.63L27.62,185.26L39.25,191.97Z" style="fill:rgb(42,49,63);fill-rule:nonzero;"/>
            <path d="M86.23,237.72L86.19,251.09L44.47,227L44.51,213.63L86.23,237.72Z" style="fill:rgb(42,49,63);fill-rule:nonzero;"/>
            <path d="M111.71,175.37L111.75,188.74L100.12,195.45L100.08,182.08L111.71,175.37Z" style="fill:rgb(42,49,63);fill-rule:nonzero;"/>
            <path d="M111.66,156.77L111.7,170.14L100.06,176.85L100.03,163.49L111.66,156.77Z" style="fill:rgb(42,49,63);fill-rule:nonzero;"/>
            <path d="M158.9,204L158.94,217.36L117.22,241.45L117.18,228.09L158.9,204Z" style="fill:rgb(42,49,63);fill-rule:nonzero;"/>
            <path d="M158.85,185.41L158.88,198.77L117.17,222.86L117.13,209.49L158.85,185.41Z" style="fill:rgb(42,49,63);fill-rule:nonzero;"/>
            <path d="M158.79,166.81L158.83,180.17L117.11,204.26L117.07,190.9L158.79,166.81Z" style="fill:rgb(42,49,63);fill-rule:nonzero;"/>
            <path d="M158.74,148.22L158.78,161.58L117.06,185.67L117.02,172.3L158.74,148.22Z" style="fill:rgb(42,49,63);fill-rule:nonzero;"/>
            <path d="M158.69,129.62L158.73,142.98L117.01,167.07L116.97,153.7L158.69,129.62Z" style="fill:rgb(42,49,63);fill-rule:nonzero;"/>
            <path d="M111.87,231.16L111.91,244.52L100.27,251.23L100.24,237.87L111.87,231.16Z" style="fill:rgb(42,49,63);fill-rule:nonzero;"/>
            <path d="M111.82,212.56L111.86,225.93L100.22,232.64L100.18,219.27L111.82,212.56Z" style="fill:rgb(42,49,63);fill-rule:nonzero;"/>
            <path d="M111.76,193.97L111.8,207.33L100.17,214.04L100.13,200.68L111.76,193.97Z" style="fill:rgb(42,49,63);fill-rule:nonzero;"/>
            <path d="M165.35,235.53L165.32,245.93L92.99,287.97L93.01,277.32L165.35,235.53Z" style="fill:rgb(67,56,202);fill-rule:nonzero;"/>
            <path d="M93.01,277.32L92.98,287.97L20.17,245.93L20.2,235.28L93.01,277.32Z" style="fill:rgb(67,56,202);fill-rule:nonzero;"/>
            <path d="M92.53,118.71L93.35,118.71L97.49,121.09C94.533,121.985 91.377,121.985 88.42,121.09L92.53,118.71Z" style="fill:rgb(42,49,63);fill-rule:nonzero;"/>
            <g>
                <path d="M74.55,103.55C85.1,98.45 100.55,98.45 111.16,103.55L107.43,105.72C98.91,101.79 86.77,101.79 78.31,105.72L74.55,103.55Z" style="fill:rgb(42,49,63);fill-rule:nonzero;"/>
                <path d="M81,107.24C88.647,104.132 97.213,104.132 104.86,107.24L101.1,109.42C95.836,107.471 90.044,107.471 84.78,109.42L81,107.24Z" style="fill:rgb(42,49,63);fill-rule:nonzero;"/>
                <path d="M88.36,111.52C91.319,110.62 94.481,110.62 97.44,111.52L93.33,113.91C93.05,113.89 92.77,113.89 92.49,113.91L88.36,111.52Z" style="fill:rgb(42,49,63);fill-rule:nonzero;"/>
                <path d="M97.06,116.55C97.085,116.391 97.085,116.229 97.06,116.07L101.17,113.68C101.909,114.352 102.33,115.306 102.33,116.305C102.33,117.304 101.909,118.258 101.17,118.93L97.06,116.55Z" style="fill:rgb(42,49,63);fill-rule:nonzero;"/>
                <path d="M104.84,121C108.19,118.17 108.17,114.39 104.84,111.55L108.6,109.37C113.99,113.43 114.02,119.13 108.67,123.19L104.84,121Z" style="fill:rgb(42,49,63);fill-rule:nonzero;"/>
                <path d="M81,111.58C77.65,114.42 77.68,118.2 81.06,121.03L77.3,123.22C71.91,119.16 71.88,113.46 77.22,109.4L81,111.58Z" style="fill:rgb(42,49,63);fill-rule:nonzero;"/>
                <path d="M111.26,124.74C118.01,119.83 117.96,112.79 111.17,107.88L114.9,105.71C123.73,111.83 123.79,120.79 115.02,126.91L111.26,124.74Z" style="fill:rgb(42,49,63);fill-rule:nonzero;"/>
                <path d="M78.43,126.9C86.94,130.82 99.08,130.82 107.55,126.9L111.3,129.07C100.76,134.17 85.3,134.17 74.7,129.07L78.43,126.9Z" style="fill:rgb(42,49,63);fill-rule:nonzero;"/>
            </g>
            <path d="M74.59,107.88C67.85,112.79 67.89,119.82 74.69,124.74L71,126.91C62.16,120.79 62.11,111.83 70.87,105.71L74.59,107.88Z" style="fill:rgb(42,49,63);fill-rule:nonzero;"/>
            <path d="M84.81,123.19C90.071,125.139 95.859,125.139 101.12,123.19L104.91,125.38C97.263,128.488 88.697,128.488 81.05,125.38L84.81,123.19Z" style="fill:rgb(42,49,63);fill-rule:nonzero;"/>
            <path d="M88.78,116.07C88.755,116.229 88.755,116.391 88.78,116.55L84.67,118.94C83.931,118.266 83.509,117.31 83.509,116.31C83.509,115.31 83.931,114.354 84.67,113.68L88.78,116.07Z" style="fill:rgb(42,49,63);fill-rule:nonzero;"/>
            <path d="M334,203.88C336.354,205.401 337.842,207.962 338,210.76L338,217.57C338,220.1 336.2,221.12 334,219.84L279.56,188.42C277.206,186.899 275.718,184.338 275.56,181.54L275.56,174.73C275.56,172.2 277.37,171.18 279.56,172.45L334,203.88Z" style="fill:rgb(213,215,226);fill-rule:nonzero;"/>
            <ellipse cx="219.44" cy="336.94" rx="37.97" ry="21.92" style="fill:rgb(239,239,245);"/>
            <g id="Men_2">
                <path d="M188,166.22C187.55,170.14 182.87,187.06 183.87,192.85C184.87,198.64 200.87,208.35 200.87,208.35L203.09,198.42L194.23,189.75L196.63,173.32L188,166.22Z" style="fill:rgb(255,206,169);fill-rule:nonzero;"/>
                <path d="M200.35,149.54C197.146,148.06 193.298,149.223 191.45,152.23C189.1,156.13 186.66,169.49 186.45,171.77C186.45,171.77 189.75,176.33 194.7,175.57L200.35,149.54Z" style="fill:rgb(237,237,237);fill-rule:nonzero;"/>
                <path d="M218.61,338.19C222.101,339.165 225.84,338.716 229,336.94C231.5,337.02 245,331.23 246.86,336.09C248.47,340.35 242.61,344.29 239.48,345.09C232.65,346.74 227.6,350.15 224.85,350.73C222.85,351.16 220.16,351.44 218.53,349.84C216.53,347.87 216.7,340.73 218.61,338.19Z" style="fill:rgb(56,34,109);fill-rule:nonzero;"/>
                <path d="M224.8,349.51C227.55,348.93 232.6,345.51 239.43,343.87C242.06,343.23 246.58,340.36 247.03,336.94C247.64,340.86 242.35,344.34 239.43,345.05C232.6,346.7 227.55,350.11 224.8,350.69C222.8,351.12 220.11,351.4 218.48,349.8C218.06,349.33 217.755,348.768 217.59,348.16C219.643,349.725 222.32,350.226 224.8,349.51Z" style="fill:rgb(67,56,202);fill-rule:nonzero;"/>
                <path d="M196.67,328.34C200.142,329.299 203.857,328.849 207,327.09C209.5,327.17 223,321.37 224.86,326.24C226.47,330.5 220.62,334.44 217.49,335.24C210.65,336.89 205.6,340.3 202.85,340.88C200.85,341.31 198.16,341.59 196.53,339.98C194.59,338 194.76,330.88 196.67,328.34Z" style="fill:rgb(56,34,109);fill-rule:nonzero;"/>
                <path d="M202.86,339.66C203.934,339.433 205.359,338.774 207.105,337.956C209.828,336.68 213.332,335.019 217.5,334.02C220.12,333.38 224.64,330.51 225.09,327.09C225.7,331.01 220.42,334.49 217.5,335.2C210.66,336.85 205.61,340.26 202.86,340.84C200.86,341.27 198.17,341.55 196.54,339.94C196.118,339.475 195.813,338.916 195.65,338.31C197.703,339.875 200.38,340.376 202.86,339.66Z" style="fill:rgb(67,56,202);fill-rule:nonzero;"/>
                <path d="M196.4,291.59C196.982,286.565 198.027,281.604 199.52,276.77C201.013,271.936 198.59,263.99 198.13,251.87C197.6,238.11 192.82,226 196.59,215.03L239,224.47C239,224.47 236.43,279.31 235.87,285.95C235.555,291.118 234.917,296.262 233.96,301.35C232.02,311.99 228.88,337.35 228.88,337.35C224.39,339.95 218.5,338.51 218.5,338.51C218.5,338.51 218.82,306.51 219.11,298.81C219.46,289.45 219.75,290.16 219.75,290.16L218.35,266.83L217.43,255.22C217.43,255.22 216.25,263.74 215.49,271.35C214.82,277.98 213.22,283.99 211.43,296.35C209.88,307.07 207.36,328.59 207.36,328.59C202.87,331.2 196.78,329.04 196.78,329.04C196.78,329.04 195.19,300.88 196.4,291.59Z" style="fill:rgb(67,56,202);fill-rule:nonzero;"/>
                <path d="M202.6,149.78C205.83,149.93 208.24,150.78 208.6,149.78C208.951,148.114 209.198,146.427 209.34,144.73C208.97,143.79 208.65,142.78 208.65,142.78C204.59,140.29 203.31,135.9 202.77,130.78C201.86,122.05 206.58,114.41 215.31,113.49C223.52,112.64 229.56,118.41 231.17,126.33C232.04,130.24 233.77,137.63 231.43,144.06C230.13,147.66 228.43,150.51 226.76,151.06C225.133,151.012 223.51,150.869 221.9,150.63C220.29,150.391 221.46,153.05 221.16,154.63C220.86,156.21 220.98,157.01 224.08,158.92C227.18,160.83 219.39,164.75 214.31,164.37C209.23,163.99 203.55,161 202,157.66C200.23,154 200.38,149.67 202.6,149.78Z" style="fill:rgb(255,206,169);fill-rule:nonzero;"/>
                <path d="M207.28,150.25C206.38,152.49 208.66,155.25 214.73,157.13C220.8,159.01 221.34,156.58 221.34,156.58C221.34,156.58 230.24,160.58 233.14,162.66C236.79,165.21 238.4,172.58 238.89,185.02C239.46,199.42 239.51,220.78 239.03,224.47C239.03,224.47 232.22,231.25 223.51,230.54C214.8,229.83 200.13,222.11 196.58,216.16C196.67,203.53 198.15,201.48 196.11,194.16C191.43,177.51 188.96,170.69 191.24,159.63C193.11,150.51 195.74,149.38 199.34,149.46C201.999,149.583 204.649,149.846 207.28,150.25Z" style="fill:rgb(244,244,244);fill-rule:nonzero;"/>
                <path d="M273.51,186.28C266.32,184.61 256.97,183.78 253.78,181.62C246.06,176.39 239.71,171.12 235.03,168.42C229.51,165.23 227.31,165.91 224.33,166.98C220.83,168.25 220.56,172.4 226.54,177.39C233.62,183.28 239.22,186.86 248.93,192.64C251.47,194.15 279.71,196.79 287.19,197.08C289.19,197.16 290.71,197.3 294.57,197.45C298.43,197.6 302.9,196.85 305.74,195.33C308.58,193.81 309.37,192.81 309.31,192.1C309.24,191.21 308.42,190.98 307.04,191.53C304.921,192.557 302.635,193.194 300.29,193.41C297.945,193.626 303.37,192.41 305.15,191.58C306.741,190.883 308.231,189.975 309.58,188.88C310.86,187.8 310.63,185.33 309.23,185.88C307.83,186.43 306.88,187.18 304.23,188.31C302.823,188.912 301.349,189.345 299.84,189.6C301.585,188.737 303.257,187.734 304.84,186.6C306.149,185.764 307.19,184.57 307.84,183.16C308.17,182.42 307.59,181.04 305.94,181.92C304.45,182.7 302.94,184.32 299.84,185.38C297.61,186.14 295.93,186.38 296.11,185.93C296.29,185.48 297.63,185.14 299.05,183.66C300.47,182.18 300.9,180.04 300.05,179.34C299.2,178.64 299.34,178.79 297.72,180.03C296.1,181.27 294.27,181.87 292.13,183.8C290.767,185.238 289.075,186.322 287.2,186.96C284.74,187.8 280.34,187.86 273.51,186.28Z" style="fill:rgb(255,206,169);fill-rule:nonzero;"/>
                <path d="M221.37,163.92C224.76,160.47 228.75,160.16 234.79,164.66C240.83,169.16 245.59,173.01 245.59,173.01C245.728,176.327 244.589,179.575 242.41,182.08C238.68,186.62 235.41,185.68 235.41,185.68C235.41,185.68 229.57,180.59 225.67,177.06C221.77,173.53 217.18,168.17 221.37,163.92Z" style="fill:rgb(237,237,237);fill-rule:nonzero;"/>
                <path d="M230.93,125.21C230.93,125.21 238.48,113.74 222.13,111.4C210.34,109.72 202.76,117.29 201.89,125.52C201.05,133.37 205.89,141.52 209.38,144.76C211.08,145.37 214.75,145.76 219.57,143.53C219.761,141.392 219.834,139.246 219.79,137.1C219.746,134.954 214.05,125 230.93,125.21Z" style="fill:rgb(58,44,109);fill-rule:nonzero;"/>
            </g>
            <g>
                <path d="M482,360.37C493.83,367.2 503.87,366.49 492.91,374.56C464.77,395.27 451.24,391.95 439.41,385.12L387.93,355.39C376.09,348.56 383.17,333.39 394.93,326.58C406.69,319.77 418.68,323.81 430.52,330.65L482,360.37Z" style="fill:rgb(239,239,245);fill-rule:nonzero;"/>
            </g>
            <path d="M499.56,284C499.56,284.31 499.51,284.63 499.45,284.95C499.4,285.21 499.336,285.467 499.26,285.72C499.18,286.02 499.11,286.32 499,286.62C498.89,286.92 498.8,287.11 498.69,287.36C498.58,287.61 498.42,287.99 498.25,288.3C498.08,288.61 497.98,288.75 497.85,288.97C497.72,289.19 497.4,289.68 497.14,290.02C496.88,290.36 496.63,290.69 496.34,291.02C496.27,291.09 496.21,291.17 496.14,291.25C495.75,291.68 495.32,292.09 494.87,292.5C494.58,292.76 494.26,293.01 493.94,293.27C493.62,293.53 493.4,293.72 493.1,293.93C492.8,294.14 492.38,294.42 492.01,294.66C491.64,294.9 491.27,295.16 490.86,295.39C489.936,295.923 488.985,296.407 488.01,296.84L487.15,297.2C486.383,297.533 485.593,297.833 484.78,298.1C484.49,298.2 484.2,298.31 483.91,298.4C483.4,298.56 482.91,298.7 482.35,298.85C481.79,299 481.57,299.07 481.16,299.17C480.75,299.27 480.05,299.41 479.49,299.52C479.11,299.6 478.74,299.69 478.35,299.75C477.22,299.95 476.07,300.11 474.92,300.23L473.84,300.32C473.16,300.38 472.48,300.43 471.84,300.46L467.49,300.46C467.03,300.46 466.49,300.46 465.96,300.38L464.56,300.27L463.06,300.1L461.71,299.91L460.1,299.63L458.85,299.38C458.22,299.24 457.6,299.08 456.98,298.92L455.98,298.64C454.87,298.31 453.79,297.95 452.74,297.54C452.22,297.34 451.74,297.12 451.22,296.9C450.96,296.78 450.69,296.68 450.44,296.56C449.68,296.19 448.93,295.81 448.22,295.4L396.72,265.67C390.77,262.23 387.8,257.72 387.81,253.21L387.59,333.8C387.59,338.31 390.59,342.8 396.5,346.25L447.91,376C448.63,376.41 449.37,376.79 450.13,377.15C450.38,377.27 450.66,377.38 450.92,377.49C451.37,377.69 451.81,377.9 452.27,378.08L452.43,378.14C453.48,378.55 454.56,378.91 455.67,379.23L455.93,379.32L456.71,379.51C457.33,379.67 457.95,379.83 458.58,379.97C458.75,379.97 458.91,380.06 459.08,380.09L459.84,380.22C460.37,380.32 460.9,380.42 461.44,380.5L462.08,380.61C462.31,380.61 462.55,380.66 462.79,380.69C463.29,380.76 463.79,380.81 464.3,380.86L465.01,380.94L465.69,380.94L467.22,381.02L471.57,381.02C472.26,381.02 472.93,380.94 473.57,380.89L474.4,380.83L474.65,380.83C475.81,380.71 476.95,380.55 478.09,380.35L478.25,380.35C478.58,380.29 478.89,380.2 479.25,380.14C479.81,380.033 480.37,379.913 480.93,379.78L482.11,379.46C482.63,379.32 483.16,379.18 483.67,379.02L484,378.92C484.19,378.86 484.35,378.78 484.54,378.72C485.347,378.44 486.137,378.14 486.91,377.82L487.78,377.45C488.78,377.01 489.72,376.53 490.63,376.01L490.99,375.79C491.27,375.62 491.51,375.44 491.77,375.27C492.03,375.1 492.52,374.8 492.86,374.55C493.2,374.3 493.43,374.1 493.7,373.88C493.97,373.66 494.34,373.38 494.63,373.11L494.82,372.96C495.2,372.6 495.56,372.24 495.9,371.87L496.1,371.63C496.3,371.4 496.51,371.18 496.69,370.95C496.87,370.72 496.82,370.74 496.9,370.64C497.16,370.29 497.39,369.94 497.61,369.58C497.7,369.44 497.82,369.29 497.9,369.14C497.943,369.066 497.979,368.989 498.01,368.91C498.175,368.606 498.322,368.292 498.45,367.97C498.53,367.79 498.64,367.61 498.71,367.43C498.78,367.25 498.71,367.3 498.71,367.24C498.82,366.94 498.89,366.63 498.97,366.33C499.041,366.13 499.101,365.926 499.15,365.72L499.15,365.56C499.15,365.24 499.23,364.93 499.25,364.61C499.27,364.29 499.32,364.2 499.33,363.99L499.33,363.72L499.56,283.14C499.574,283.426 499.574,283.714 499.56,284Z" style="fill:rgb(213,215,226);fill-rule:nonzero;"/>
            <path d="M490.73,270.69C502.55,277.52 502.62,288.6 490.86,295.43C479.1,302.26 459.97,302.27 448.14,295.43L396.64,265.7C384.82,258.87 384.75,247.79 396.52,240.95C408.29,234.11 427.4,234.12 439.23,240.95L490.73,270.69Z" style="fill:rgb(233,234,244);fill-rule:nonzero;"/>
            <path d="M413.85,334.22L420.85,315.22C418.771,312.489 417.574,309.188 417.42,305.76C417.42,301.86 419.6,299.76 422.62,300.27C423.573,300.425 424.487,300.765 425.31,301.27C429.65,303.78 433.17,309.84 433.15,314.84C433.15,317.95 431.76,319.89 429.67,320.31L434.91,340.87L436.55,347.35L413.85,334.22Z" style="fill:rgb(58,65,81);fill-rule:nonzero;"/>
            <path d="M418.61,331.44L425.61,312.44C423.523,309.714 422.325,306.41 422.18,302.98C422.17,302.058 422.319,301.141 422.62,300.27C423.573,300.425 424.487,300.765 425.31,301.27C429.65,303.78 433.17,309.84 433.15,314.84C433.15,317.95 431.76,319.89 429.67,320.31L434.91,340.87L418.61,331.44Z" style="fill:rgb(50,57,68);fill-rule:nonzero;"/>
            <path d="M427.18,212.53C426.702,212.823 426.25,213.158 425.83,213.53L425.61,213.73C425.232,214.109 424.897,214.528 424.61,214.98L424.34,215.42L424.28,215.53C424.226,215.609 424.179,215.693 424.14,215.78C423.981,216.076 423.844,216.384 423.73,216.7C423.616,217.016 423.73,216.7 423.73,216.76C423.459,217.509 423.281,218.288 423.2,219.08L423.2,219.17C423.142,219.608 423.116,220.049 423.12,220.49L423.05,247.49L423.05,257.22C420.741,258.38 418.184,258.963 415.6,258.92L415.6,224.85C415.605,224.143 415.668,223.437 415.79,222.74C415.79,222.6 415.84,222.45 415.88,222.3C415.918,222.104 415.968,221.91 416.03,221.72C416.092,221.53 416.03,221.66 416.03,221.63C416.084,221.454 416.148,221.28 416.22,221.11C416.21,221.081 416.21,221.049 416.22,221.02C416.28,220.88 416.33,220.75 416.39,220.62C416.42,220.505 416.464,220.395 416.52,220.29C416.556,220.244 416.586,220.193 416.61,220.14C416.735,219.871 416.882,219.614 417.05,219.37C417.218,219.126 417.05,219.37 417.1,219.37C417.249,219.148 417.409,218.935 417.58,218.73C417.76,218.53 417.94,218.33 418.13,218.14C418.188,218.058 418.263,217.99 418.35,217.94C418.553,217.751 418.766,217.574 418.99,217.41C419.181,217.254 419.389,217.12 419.61,217.01C419.673,216.955 419.74,216.905 419.81,216.86L427.18,212.53Z" style="fill:rgb(50,57,68);fill-rule:nonzero;"/>
            <path d="M481.88,253.53L481.88,254.45L481.81,281.18L481.81,291.01C479.521,292.132 476.999,292.697 474.45,292.66L474.36,292.66L474.36,279.51L474.41,258.79C474.414,257.694 474.354,256.599 474.23,255.51C474.17,254.98 474.1,254.43 474.01,253.88L474.01,253.64C473.94,253.22 473.87,252.78 473.77,252.36C473.78,252.3 473.78,252.24 473.77,252.18C473.55,251.12 473.29,250.04 472.98,248.96C472.98,248.81 472.89,248.68 472.85,248.54C472.71,248.06 472.56,247.6 472.4,247.13C472.24,246.66 472.03,246.03 471.83,245.48C471.63,244.93 471.44,244.48 471.24,243.98C470.99,243.32 470.69,242.66 470.4,241.98C470.361,241.911 470.331,241.837 470.31,241.76C470.289,241.683 470.31,241.71 470.25,241.67C469.72,240.5 469.14,239.31 468.5,238.14C468.26,237.66 468,237.2 467.73,236.73C467.38,236.1 467.03,235.48 466.65,234.86C466.27,234.24 465.8,233.56 465.38,232.92C465.18,232.59 464.98,232.26 464.76,231.92L464.54,231.59C464.503,231.532 464.459,231.478 464.41,231.43C462.89,229.196 461.254,227.043 459.51,224.98C459.4,224.84 459.27,224.71 459.16,224.58C458.35,223.58 457.53,222.69 456.67,221.8C456.554,221.657 456.427,221.523 456.29,221.4C455.85,220.94 455.41,220.48 454.95,220.02C454.49,219.56 453.89,218.96 453.34,218.45C452.51,217.68 451.69,216.91 450.83,216.16C449.35,214.88 447.83,213.667 446.27,212.52L445.36,211.86C443.678,210.65 441.936,209.525 440.14,208.49C439.53,208.14 438.95,207.83 438.36,207.49C437.77,207.15 437.04,206.81 436.36,206.49C435.91,206.27 435.45,206.07 435.01,205.87L434.44,205.61L433.76,205.34C432.54,204.83 431.33,204.34 430.14,204.02C430.094,204.01 430.047,204.003 430,204L429.56,203.89C429.36,203.81 429.16,203.78 428.98,203.72C428.8,203.66 428.48,203.57 428.25,203.52L428.19,203.52L427.7,203.41C427.26,203.3 426.85,203.21 426.43,203.14C426.2,203.08 425.94,203.05 425.7,203.01C425.657,203 425.613,203 425.57,203.01L424.68,202.86L424.47,202.86C423.92,202.781 423.366,202.731 422.81,202.71C422.458,202.67 422.104,202.65 421.75,202.65L421.22,202.65C420.679,202.646 420.138,202.673 419.6,202.73L419.09,202.73C418.919,202.739 418.749,202.759 418.58,202.79C418.425,202.802 418.271,202.825 418.12,202.86L418.07,202.86C417.94,202.86 417.81,202.92 417.68,202.93C417.37,202.99 417.06,203.04 416.75,203.13C416.7,203.122 416.65,203.122 416.6,203.13C416.513,203.131 416.428,203.151 416.35,203.19C416.125,203.238 415.904,203.305 415.69,203.39C415.517,203.425 415.347,203.472 415.18,203.53C415.013,203.588 415.12,203.53 415.1,203.53C415.08,203.53 415.1,203.53 415.1,203.53C414.731,203.654 414.371,203.801 414.02,203.97L413.89,204.02C413.657,204.125 413.43,204.241 413.21,204.37C413.057,204.429 412.909,204.503 412.77,204.59L420.24,200.25C420.989,199.82 421.776,199.459 422.59,199.17C422.619,199.161 422.651,199.161 422.68,199.17C423.333,198.941 424.001,198.757 424.68,198.62L424.9,198.56L425.15,198.56C425.61,198.47 426.09,198.42 426.56,198.36L426.97,198.36C427.53,198.36 428.1,198.29 428.7,198.29L430.47,198.29C430.71,198.29 430.96,198.35 431.2,198.36L432.14,198.46L432.23,198.46C432.54,198.46 432.85,198.57 433.18,198.61C433.51,198.65 433.64,198.68 433.87,198.74L433.95,198.74C434.5,198.85 435.06,198.98 435.65,199.12C436.2,199.25 436.76,199.41 437.31,199.58C437.339,199.571 437.371,199.571 437.4,199.58C437.594,199.63 437.785,199.693 437.97,199.77C438.34,199.88 438.69,199.99 439.03,200.12C439.1,200.134 439.167,200.158 439.23,200.19C439.469,200.26 439.703,200.347 439.93,200.45C440.2,200.56 440.48,200.65 440.77,200.76C440.876,200.815 440.987,200.862 441.1,200.9L441.85,201.23C442.07,201.32 442.29,201.4 442.51,201.51C442.682,201.578 442.849,201.658 443.01,201.75C443.277,201.854 443.538,201.974 443.79,202.11C443.96,202.18 444.12,202.26 444.29,202.35C444.46,202.44 444.75,202.57 444.96,202.68C445.17,202.79 445.48,202.95 445.73,203.1C445.859,203.148 445.983,203.208 446.1,203.28L447.53,204.07C447.67,204.16 447.82,204.23 447.95,204.33C448.59,204.69 449.21,205.08 449.83,205.48C450.15,205.66 450.46,205.88 450.77,206.08C450.921,206.195 451.078,206.301 451.24,206.4L451.72,206.72C452.36,207.16 452.98,207.6 453.61,208.06L454.19,208.52C454.37,208.65 454.56,208.77 454.74,208.92C454.92,209.07 455.25,209.31 455.51,209.53C456.17,210.02 456.79,210.53 457.43,211.08L457.63,211.26C457.754,211.359 457.871,211.466 457.98,211.58C458.42,211.94 458.86,212.31 459.3,212.71C459.74,213.11 460.25,213.57 460.71,214.03C460.803,214.099 460.887,214.18 460.96,214.27C461.012,214.296 461.056,214.333 461.09,214.38C461.677,214.933 462.247,215.493 462.8,216.06L463.67,216.98C463.8,217.1 463.93,217.25 464.06,217.38C464.19,217.51 464.28,217.6 464.39,217.73C464.88,218.26 465.39,218.83 465.87,219.37C466.11,219.63 466.33,219.91 466.55,220.16L466.88,220.56C467.01,220.71 467.15,220.86 467.26,221C467.76,221.59 468.21,222.16 468.67,222.74C468.84,222.96 469,223.18 469.18,223.4C469.36,223.62 469.46,223.75 469.59,223.93L470.12,224.63C470.56,225.23 470.98,225.86 471.42,226.46L471.91,227.17L472.04,227.36C472.3,227.72 472.52,228.13 472.77,228.49C473.25,229.26 473.77,230.01 474.2,230.76L474.37,231.04C474.9,231.9 475.37,232.78 475.85,233.65C475.85,233.73 475.92,233.8 475.96,233.87C476.013,233.96 476.059,234.054 476.1,234.15C476.32,234.57 476.54,234.97 476.75,235.39C476.96,235.81 477.17,236.24 477.37,236.66C477.48,236.89 477.57,237.13 477.68,237.35C477.717,237.42 477.747,237.494 477.77,237.57C477.83,237.68 477.88,237.81 477.94,237.92C478.12,238.32 478.28,238.71 478.45,239.11C478.62,239.51 478.76,239.88 478.92,240.26C479,240.46 479.07,240.67 479.14,240.87C479.158,240.94 479.185,241.007 479.22,241.07C479.26,241.193 479.306,241.313 479.36,241.43C479.49,241.84 479.64,242.22 479.77,242.61C479.9,243 480.02,243.39 480.13,243.78C480.19,243.96 480.24,244.14 480.3,244.33C480.36,244.52 480.3,244.46 480.35,244.53C480.401,244.668 480.444,244.808 480.48,244.95C480.59,245.35 480.7,245.74 480.79,246.12C480.88,246.5 480.97,246.87 481.05,247.24C481.05,247.4 481.12,247.59 481.16,247.75C481.155,247.807 481.155,247.863 481.16,247.92C481.16,248.06 481.22,248.21 481.24,248.34C481.31,248.7 481.37,249.07 481.44,249.42C481.51,249.77 481.53,250.11 481.59,250.42C481.65,250.73 481.59,250.84 481.64,251.06C481.65,251.103 481.65,251.147 481.64,251.19C481.645,251.277 481.645,251.363 481.64,251.45C481.64,251.78 481.7,252.12 481.72,252.45C481.74,252.78 481.86,253.22 481.88,253.53Z" style="fill:rgb(50,57,68);fill-rule:nonzero;"/>
            <path d="M474.43,258.79L474.38,279.51L474.38,292.66C469.91,292.66 466.09,291.06 464.38,288.81L464.38,283.34L464.47,253.02C464.47,242.77 453.34,227.65 440.1,220.02C434.15,216.58 428.61,215.14 424.3,215.54C422.758,215.648 421.256,216.078 419.89,216.8C419.82,216.845 419.753,216.895 419.69,216.95C419.47,217.061 419.262,217.195 419.07,217.35C418.841,217.507 418.627,217.684 418.43,217.88C418.343,217.93 418.268,217.998 418.21,218.08C418.004,218.254 417.819,218.452 417.66,218.67C417.477,218.865 417.316,219.079 417.18,219.31C417.044,219.541 417.18,219.31 417.13,219.31C416.962,219.554 416.815,219.811 416.69,220.08C416.597,220.23 416.523,220.391 416.47,220.56C416.395,220.685 416.338,220.819 416.3,220.96C416.29,220.989 416.29,221.021 416.3,221.05C416.215,221.247 416.149,221.451 416.1,221.66C416.038,221.85 415.988,222.044 415.95,222.24C415.911,222.385 415.881,222.532 415.86,222.68C415.738,223.377 415.675,224.083 415.67,224.79L415.67,258.86C411.26,258.86 407.45,257.34 405.67,255.14L405.67,249.41L405.6,219C405.6,211.88 408.42,206.92 413.1,204.45C413.32,204.321 413.547,204.205 413.78,204.1L413.91,204.05C414.261,203.881 414.621,203.734 414.99,203.61C415.359,203.486 414.99,203.61 414.99,203.61C415.181,203.532 415.378,203.472 415.58,203.43C415.794,203.345 416.015,203.278 416.24,203.23C416.318,203.191 416.403,203.171 416.49,203.17C416.54,203.162 416.59,203.162 416.64,203.17L417.1,203.07C417.254,203.027 417.411,202.994 417.57,202.97C417.7,202.97 417.83,202.92 417.96,202.9L418.01,202.9C418.161,202.865 418.315,202.842 418.47,202.83C418.639,202.799 418.809,202.779 418.98,202.77C419.15,202.755 419.32,202.755 419.49,202.77C420.028,202.713 420.569,202.686 421.11,202.69L421.64,202.69C421.994,202.69 422.348,202.71 422.7,202.75C423.256,202.771 423.81,202.821 424.36,202.9C424.729,202.933 425.097,202.986 425.46,203.06C425.503,203.05 425.547,203.05 425.59,203.06C425.83,203.06 426.09,203.13 426.32,203.19C426.74,203.26 427.15,203.35 427.59,203.46C428.03,203.57 428.43,203.66 428.87,203.79C429.05,203.85 429.25,203.88 429.45,203.96L430.04,204.12C431.23,204.49 432.44,204.93 433.66,205.44C434.09,205.6 434.49,205.79 434.91,205.97C435.33,206.15 435.81,206.37 436.26,206.59L437.44,207.18C437.69,207.32 437.97,207.45 438.22,207.58C438.81,207.91 439.39,208.22 440,208.58C441.796,209.615 443.538,210.74 445.22,211.95L446.13,212.61C447.69,213.757 449.21,214.97 450.69,216.25C451.55,217 452.37,217.77 453.2,218.54C453.75,219.05 454.28,219.54 454.81,220.11C455.34,220.68 455.71,221.03 456.15,221.49C456.287,221.613 456.414,221.747 456.53,221.89C457.39,222.78 458.21,223.72 459.02,224.67C459.13,224.8 459.26,224.93 459.37,225.07C461.114,227.133 462.75,229.286 464.27,231.52C464.398,231.675 464.515,231.839 464.62,232.01C465.28,233.01 465.9,233.95 466.51,234.94C466.89,235.56 467.24,236.18 467.59,236.81C467.86,237.28 468.12,237.74 468.36,238.22C469,239.39 469.58,240.58 470.11,241.75C470.17,241.86 470.22,241.97 470.26,242.06C470.55,242.72 470.85,243.38 471.1,244.06C471.3,244.55 471.5,245.06 471.69,245.56C471.88,246.06 472.09,246.66 472.26,247.21C472.43,247.76 472.57,248.14 472.71,248.62C472.71,248.76 472.8,248.89 472.84,249.04C473.15,250.12 473.43,251.2 473.63,252.26C473.64,252.32 473.64,252.38 473.63,252.44C473.73,252.86 473.8,253.3 473.87,253.72L473.87,253.96C473.96,254.51 474.03,255.04 474.09,255.59C474.264,256.649 474.378,257.718 474.43,258.79Z" style="fill:rgb(58,65,81);fill-rule:nonzero;"/>
            <path d="M339.05,123.64C340.067,124.309 340.706,125.424 340.77,126.64L340.63,176.57C340.63,180.97 337.49,182.76 333.63,180.57L285,152.45C280.913,149.785 278.335,145.322 278.07,140.45L278.21,90.52C278.21,89.42 279,88.97 279.95,89.52L285.17,92.52L285.17,84.52C285.17,69.1 296.17,62.86 309.58,70.61C322.99,78.36 333.88,97.2 333.83,112.61L333.83,120.61L339.05,123.64ZM323.4,114.64L323.4,106.64C323.4,97.82 317.21,87.06 309.55,82.64C301.89,78.22 295.62,81.78 295.6,90.59L295.6,98.59L323.41,114.59M314.6,151.29L313.53,139.29C315.32,138.83 316.39,137.09 316.39,134.51C316.133,129.636 313.553,125.169 309.46,122.51C305.63,120.3 302.46,122.08 302.46,126.51C302.573,129.42 303.559,132.229 305.29,134.57L304.16,145.27C304.125,145.898 304.271,146.523 304.58,147.07C304.882,147.648 305.331,148.138 305.88,148.49L312.88,152.49C313.26,152.767 313.769,152.798 314.18,152.57C314.545,152.245 314.712,151.75 314.62,151.27" style="fill:rgb(213,215,226);fill-rule:nonzero;"/>
            <path d="M335.42,233.44C336.929,234.394 337.891,236.018 338,237.8L338,244.8C338,246.4 336.85,247.05 335.46,246.25L278,213.1C276.51,212.13 275.57,210.505 275.47,208.73L275.47,201.73C275.47,200.12 276.62,199.48 278.01,200.29L335.42,233.44Z" style="fill:rgb(213,215,226);fill-rule:nonzero;"/>
        </g>
    </g>
</svg>
